<svg width="216" height="342" viewBox="0 0 216 342" fill="none" xmlns="http://www.w3.org/2000/svg">
<path d="M216 232.629C216 292.772 167.647 341.527 108 341.527C48.3532 341.527 0 292.772 0 232.629C0 172.487 56.3736 87.2336 108 0.474365C161.407 89.0281 216 172.487 216 232.629Z" fill="#FFD100"/>
<path d="M84.44 296H131.48V161.36H84.44V296ZM108.2 148.88C124.76 148.88 135.56 138.32 135.56 124.88C135.56 111.2 124.76 100.4 108.2 100.4C91.4 100.4 80.6 111.2 80.6 124.88C80.6 138.32 91.4 148.88 108.2 148.88Z" fill="black"/>
</svg>
