<?xml version="1.0" encoding="UTF-8" standalone="no"?>
<!DOCTYPE svg PUBLIC "-//W3C//DTD SVG 1.1//EN" "http://www.w3.org/Graphics/SVG/1.1/DTD/svg11.dtd">
<svg width="100%" height="100%" viewBox="0 0 839 1141" version="1.1" xmlns="http://www.w3.org/2000/svg" xmlns:xlink="http://www.w3.org/1999/xlink" xml:space="preserve" xmlns:serif="http://www.serif.com/" style="fill-rule:evenodd;clip-rule:evenodd;stroke-linejoin:round;stroke-miterlimit:2;">
    <g transform="matrix(1,0,0,1,-2700.56,-362.101)">
        <g transform="matrix(2.66667,0,0,2.66667,2160,0)">
            <g transform="matrix(1,0,0,1,494.813,374.934)">
                <path d="M0,-49.651L0.005,-49.654L-132.413,-237.709C-133.436,-239.625 -136.183,-239.625 -137.205,-237.709L-269.624,-49.654C-283.902,-25.962 -292.112,1.802 -292.102,31.483C-292.068,117.03 -222.687,187.453 -137.148,188.696C-49.207,189.974 22.482,119.07 22.482,31.422C22.482,1.763 14.27,-25.975 0,-49.651" style="fill:rgb(255,209,0);fill-rule:nonzero;"/>
            </g>
        </g>
        <g transform="matrix(2.66667,0,0,2.66667,2160,0)">
            <g transform="matrix(1,0,0,1,300.812,261.309)">
                <path d="M0,99.296C-13.868,95.465 -27.472,91.239 -41.03,86.424C-36.087,59.638 -28.65,32.335 -10.084,11.485C-2.934,8.128 0.912,6.782 8.843,4.643C2.071,22.727 -4.297,40.762 -9.767,59.285C-1.72,40.546 7.336,22.186 14.76,3.187C22.853,1.381 27.052,0.767 35.455,0C28.678,34.281 12.022,66.685 0,99.296" style="fill-rule:nonzero;"/>
            </g>
        </g>
        <g transform="matrix(2.66667,0,0,2.66667,2160,0)">
            <g transform="matrix(0.941027,0.338331,0.338331,-0.941027,306.519,355.808)">
                <path d="M17.903,-4.132C11.264,30.31 7.974,66.156 -2.188,99.813C5.7,103.387 9.788,104.945 17.903,107.607C34.152,73.661 43.216,37.425 52.859,1.194C41.254,-0.873 29.598,-2.663 17.903,-4.132" style="fill-rule:nonzero;"/>
            </g>
        </g>
        <g transform="matrix(2.66667,0,0,2.66667,2160,0)">
            <g transform="matrix(1,0,0,1,416.498,260.663)">
                <path d="M0,119.792C-13.75,118.493 -27.43,116.757 -41.107,114.864C-43.967,76.316 -46.614,37.835 -54.896,0C-46.6,0.305 -42.499,0.67 -34.692,1.71C-26.899,26.954 -22.437,52.054 -19.497,78.284C-19.744,52.188 -22.201,27.786 -29.005,2.549C-21.412,3.78 -17.779,4.563 -11.146,6.351C2.607,43.905 3.967,80.311 0,119.792" style="fill-rule:nonzero;"/>
            </g>
        </g>
        <g transform="matrix(2.66667,0,0,2.66667,2160,0)">
            <g transform="matrix(1,0,0,1,442.269,336.403)">
                <path d="M0,-20.969C-3.689,-29.585 -5.729,-33.912 -10.251,-42.558C-6.269,-34.131 -4.541,-29.909 -1.535,-21.476C1.16,-13.475 2.277,-9.472 4.127,-1.477C5.782,-1.173 6.596,-1.021 8.188,-0.72C5.237,-8.77 3.606,-12.829 0,-20.969M11.185,46.647C1.036,46.199 -4.501,45.86 -16.127,44.904C-13.806,5.092 -17.445,-31.193 -32.882,-68.24C-23.521,-65.427 -19.413,-63.737 -13.32,-60.157C10.467,-27.397 31.048,7.802 41.903,47.096C34.462,47.271 30.098,47.258 20.479,46.986C18.78,37.641 16.719,28.363 14.328,19.171C14.328,19.171 8.376,18.416 8.253,18.401C9.889,27.734 10.841,37.181 11.185,46.647" style="fill-rule:nonzero;"/>
            </g>
        </g>
        <g transform="matrix(2.66667,0,0,2.66667,2160,0)">
            <g transform="matrix(1,0,0,1,272.623,467.086)">
                <path d="M0,-46.18C-0.696,-56.804 -0.776,-61.936 -0.533,-71.834C-1.806,-62.409 -2.252,-57.537 -2.585,-47.455C-3.2,-37.97 -3.284,-33.082 -2.837,-22.99C-0.358,-21.812 0.892,-21.243 3.41,-20.146C1.557,-30.875 0.895,-36.085 0,-46.18M10.822,43.49C1.182,38.12 -6.733,31.207 -14.827,23.819C-30.802,-18.699 -35.708,-61.349 -19.861,-104.74C-4.13,-97.943 11.98,-92.611 28.409,-87.803C27.902,-37.381 35.912,10.645 51.558,58.56C41.451,56.702 30.748,53.319 21.445,48.951C16.282,35.355 11.871,21.356 8.71,7.157C8.71,7.157 0.582,3.261 0.421,3.178C3.008,16.826 6.474,30.299 10.822,43.49" style="fill-rule:nonzero;"/>
            </g>
        </g>
        <g transform="matrix(2.66667,0,0,2.66667,2160,0)">
            <g transform="matrix(1,0,0,1,391.286,421.525)">
                <path d="M0,75.093C0.811,91.801 -13.353,108.038 -30.311,108.473C-48.871,108.948 -64.614,95.655 -70.244,78.475C-75.429,62.656 -77.188,45.167 -77.792,28.442C-78.265,15.35 -77.8,2.126 -76.314,-10.853C-73.921,-31.774 -51.278,-33.855 -34.77,-31.149C-16.181,-28.102 -0.634,-17.154 -0.487,3.271C-0.455,7.681 -0.726,19.258 -0.806,23.872C-11.896,23.459 -22.747,22.724 -33.794,21.653C-33.748,15.934 -33.534,7.454 -33.381,3.165C-33.27,0.033 -34.494,-1.282 -36.88,-1.631C-39.263,-1.978 -40.586,-0.666 -40.742,2.617C-41.233,12.97 -41.504,23.641 -41.238,34.05C-40.934,45.993 -40.538,58.165 -38.977,70.032C-38.366,74.668 -36.95,76.024 -34.69,76.103C-32.43,76.182 -31.387,74.776 -31.807,70.027C-32.429,62.991 -32.956,53.61 -33.032,52.05C-22.23,52.56 -11.527,52.95 -0.715,52.351C-0.663,56.05 -0.22,70.573 0,75.093" style="fill-rule:nonzero;"/>
            </g>
        </g>
        <g transform="matrix(2.66667,0,0,2.66667,2160,0)">
            <g transform="matrix(0.969047,0.246875,0.246875,-0.969047,382.25,517.216)">
                <path d="M16.013,-1.551C2.313,38.389 -6.688,79.37 -15.982,120.498C-5.276,122.261 5.401,124.069 16.013,126.34C25.554,89.794 32.584,52.707 41.142,15.933C33.576,9.363 24.788,3.278 16.013,-1.551" style="fill-rule:nonzero;"/>
            </g>
        </g>
        <g transform="matrix(2.66667,0,0,2.66667,2160,0)">
            <g transform="matrix(1,0,0,1,465.941,462.76)">
                <path d="M0,-17.105C0.296,-20.004 0.976,-36.275 0.851,-39.251C0.72,-42.363 -0.373,-43.53 -2.081,-43.316C-2.975,-43.205 -3.425,-43.15 -4.334,-43.043C-4.794,-23.063 -6.316,-3.255 -9.864,16.433C-8.825,15.819 -8.313,15.506 -7.303,14.875C-6.154,14.158 -5.002,12.307 -4.414,9.928C-3.495,6.209 -0.297,-14.205 0,-17.105M-8.495,27.782C-17.379,35.354 -25.537,41.055 -35.609,46.983C-34.092,10.024 -31.625,-26.828 -32.041,-63.838C-22.338,-63.488 -12.548,-63.44 -2.842,-63.761C7.765,-64.088 14.149,-62.535 17.36,-57.954C23.452,-49.263 21.933,-35.341 20.13,-25.269C17.974,-13.226 12.92,-1.587 6.27,8.784C2.422,14.787 -1.205,20.892 -8.495,27.782" style="fill-rule:nonzero;"/>
            </g>
        </g>
    </g>
</svg>
