<svg width="137" height="226" viewBox="0 0 137 226" fill="none" xmlns="http://www.w3.org/2000/svg">
<path d="M136.928 183.314L131.449 225.814L7.60156 222.328L2.28906 192.113L52.5918 188.959L52.2598 94.1641L0.462891 92.5039V65.9414L104.887 59.1348L92.2695 186.303L136.928 183.314ZM104.887 20.1211C104.887 22.7773 104.057 25.3229 102.396 27.7578C100.847 30.082 98.6888 32.1296 95.9219 33.9004C93.1549 35.6712 89.89 37.11 86.127 38.2168C82.4746 39.2129 78.5456 39.7109 74.3398 39.7109C70.0234 39.7109 65.9837 39.2129 62.2207 38.2168C58.5684 37.11 55.3587 35.6712 52.5918 33.9004C49.8249 32.1296 47.6113 30.082 45.9512 27.7578C44.4017 25.3229 43.627 22.7773 43.627 20.1211C43.627 17.3542 44.4017 14.7533 45.9512 12.3184C47.6113 9.77279 49.8249 7.61458 52.5918 5.84375C55.3587 4.07292 58.5684 2.68945 62.2207 1.69336C65.9837 0.586589 70.0234 0.0332031 74.3398 0.0332031C78.5456 0.0332031 82.4746 0.586589 86.127 1.69336C89.89 2.68945 93.1549 4.07292 95.9219 5.84375C98.6888 7.61458 100.847 9.77279 102.396 12.3184C104.057 14.7533 104.887 17.3542 104.887 20.1211Z" fill="black"/>
</svg>
