<svg width="500" height="500" viewBox="0 0 500 500" fill="none" xmlns="http://www.w3.org/2000/svg">
<path d="M498.497 146.927C497.28 120.316 493.053 102.142 486.874 86.2427C480.598 69.561 470.757 54.451 458.038 41.9617C445.553 29.2435 430.439 19.3977 413.757 13.1187C397.854 6.94275 379.684 2.71988 353.073 1.51062C326.412 0.289917 317.894 0 250 0C182.106 0 173.588 0.289917 146.927 1.50299C120.316 2.71988 102.146 6.94656 86.2427 13.1264C69.561 19.4016 54.451 29.2435 41.9617 41.9617C29.2435 54.4472 19.3977 69.5572 13.1187 86.2389C6.94275 102.142 2.71988 120.316 1.51062 146.923C0.289917 173.588 0 182.102 0 249.996C0 317.894 0.289917 326.412 1.51062 353.073C2.72369 379.681 6.95038 397.854 13.1302 413.757C19.4054 430.435 29.2473 445.549 41.9655 458.035C54.451 470.753 69.5648 480.595 86.2465 486.87C102.146 493.053 120.319 497.276 146.931 498.493C173.595 499.71 182.11 499.996 250.004 499.996C317.898 499.996 326.416 499.71 353.077 498.493C379.688 497.276 397.858 493.053 413.761 486.87C447.342 473.885 473.888 447.338 486.874 413.757C493.057 397.854 497.28 379.681 498.497 353.073C499.71 326.408 500 317.894 500 250C500 182.102 499.71 173.588 498.497 146.927V146.927ZM453.495 351.025C452.385 375.401 448.311 388.638 444.889 397.446C436.478 419.251 419.247 436.482 397.442 444.893C388.634 448.315 375.397 452.389 351.021 453.499C324.665 454.704 316.757 454.956 250 454.956C183.239 454.956 175.335 454.704 148.975 453.499C124.603 452.389 111.366 448.315 102.554 444.893C91.6977 440.884 81.8748 434.494 73.8106 426.189C65.506 418.125 59.1164 408.306 55.1071 397.446C51.6853 388.638 47.6112 375.401 46.5012 351.025C45.2995 324.665 45.0439 316.757 45.0439 250.004C45.0439 183.247 45.2995 175.343 46.5012 148.979C47.6151 124.603 51.6853 111.366 55.1071 102.558C59.1164 91.6977 65.5098 81.8749 73.8106 73.8106C81.8748 65.506 91.6977 59.1164 102.558 55.1109C111.366 51.6853 124.603 47.6151 148.979 46.5012C175.339 45.2995 183.247 45.0439 250 45.0439H249.996C316.75 45.0439 324.657 45.2995 351.021 46.505C375.397 47.6151 388.63 51.6892 397.442 55.1109C408.298 59.1202 418.121 65.5098 426.186 73.8106C434.49 81.8749 440.88 91.6977 444.885 102.558C448.311 111.366 452.385 124.603 453.495 148.979C454.697 175.339 454.952 183.247 454.952 250C454.952 316.757 454.7 324.661 453.495 351.025Z" fill="black"/>
<path d="M249.996 121.62C179.096 121.62 121.62 179.1 121.62 250C121.62 320.9 179.096 378.376 249.996 378.376C320.9 378.376 378.376 320.9 378.376 250C378.376 179.1 320.9 121.62 249.996 121.62V121.62ZM249.996 333.332C203.976 333.328 166.664 296.021 166.668 249.996C166.668 203.976 203.976 166.664 250 166.664C296.024 166.668 333.332 203.976 333.332 249.996C333.332 296.021 296.02 333.332 249.996 333.332V333.332Z" fill="black"/>
<path d="M413.448 116.55C413.448 133.118 400.017 146.549 383.449 146.549C366.878 146.549 353.447 133.118 353.447 116.55C353.447 99.9794 366.878 86.5479 383.449 86.5479C400.017 86.5479 413.448 99.9794 413.448 116.55V116.55Z" fill="black"/>
</svg>
